<svg width="100" height="33" viewBox="0 0 100 33" fill="none" xmlns="http://www.w3.org/2000/svg">
<path d="M9.35369 8.95348V18.3427C9.35369 20.3171 7.99006 21.7376 5.77415 21.7376C3.56534 21.7376 2.1946 20.3171 2.1946 18.3427V8.95348H0V18.5202C0 21.5742 2.28693 23.7404 5.77415 23.7404C9.26136 23.7404 11.5554 21.5742 11.5554 18.5202V8.95348H9.35369Z" fill="#101828"/>
<path d="M16.6992 17.0217C16.6992 15.2816 17.7646 14.2873 19.2418 14.2873C20.6836 14.2873 21.5572 15.2319 21.5572 16.8157V23.4989H23.6808V16.56C23.6808 13.8611 22.1964 12.4478 19.9663 12.4478C18.3256 12.4478 17.2532 13.2077 16.7489 14.3654H16.614V12.5898H14.5756V23.4989H16.6992V17.0217Z" fill="#101828"/>
<path d="M31.6211 12.5898H29.3839V9.97621H27.2603V12.5898H25.6623V14.2944H27.2603V20.7362C27.2532 22.7177 28.766 23.6765 30.4421 23.641C31.1168 23.6339 31.5714 23.506 31.82 23.4137L31.4364 21.6594C31.2944 21.6879 31.0316 21.7518 30.6907 21.7518C30.0018 21.7518 29.3839 21.5245 29.3839 20.2958V14.2944H31.6211V12.5898Z" fill="#101828"/>
<path d="M33.9702 23.4989H36.0938V12.5898H33.9702V23.4989ZM35.0426 10.9066C35.7741 10.9066 36.3849 10.3384 36.3849 9.6424C36.3849 8.94638 35.7741 8.37109 35.0426 8.37109C34.304 8.37109 33.7003 8.94638 33.7003 9.6424C33.7003 10.3384 34.304 10.9066 35.0426 10.9066Z" fill="#101828"/>
<path d="M44.043 12.5898H41.8058V9.97621H39.6822V12.5898H38.0842V14.2944H39.6822V20.7362C39.6751 22.7177 41.1879 23.6765 42.864 23.641C43.5387 23.6339 43.9933 23.506 44.2418 23.4137L43.8583 21.6594C43.7163 21.6879 43.4535 21.7518 43.1126 21.7518C42.4237 21.7518 41.8058 21.5245 41.8058 20.2958V14.2944H44.043V12.5898Z" fill="#101828"/>
<path d="M48.75 8.95348H46.6264V23.4989H48.75V8.95348Z" fill="#101828"/>
<path d="M56.3086 23.7191C58.6879 23.7191 60.3711 22.5472 60.854 20.7717L58.8441 20.4094C58.4606 21.4393 57.5373 21.9648 56.3299 21.9648C54.5117 21.9648 53.2901 20.7859 53.2333 18.6836H60.989V17.9308C60.989 13.989 58.631 12.4478 56.1594 12.4478C53.1197 12.4478 51.1168 14.7631 51.1168 18.1154C51.1168 21.5032 53.0913 23.7191 56.3086 23.7191ZM53.2404 17.0927C53.3256 15.5444 54.4478 14.2021 56.1737 14.2021C57.8214 14.2021 58.9009 15.4237 58.908 17.0927H53.2404Z" fill="#101828"/>
<path d="M67.429 23.712C69.4176 23.712 70.1989 22.4975 70.5824 21.8015H70.7599V23.4989H72.8338V8.95348H70.7102V14.3583H70.5824C70.1989 13.6836 69.4744 12.4478 67.4432 12.4478C64.8082 12.4478 62.8693 14.5288 62.8693 18.0657C62.8693 21.5955 64.7798 23.712 67.429 23.712ZM67.8977 21.9009C66.0014 21.9009 65.0142 20.2319 65.0142 18.0444C65.0142 15.8782 65.9801 14.2518 67.8977 14.2518C69.7514 14.2518 70.7457 15.7646 70.7457 18.0444C70.7457 20.3384 69.7301 21.9009 67.8977 21.9009Z" fill="#101828"/>
<path d="M90.6818 8.95348V18.3427C90.6818 20.3171 89.3182 21.7376 87.1023 21.7376C84.8935 21.7376 83.5227 20.3171 83.5227 18.3427V8.95348H81.3281V18.5202C81.3281 21.5742 83.6151 23.7404 87.1023 23.7404C90.5895 23.7404 92.8835 21.5742 92.8835 18.5202V8.95348H90.6818Z" fill="#101828"/>
<path d="M98.2688 8.95348H96.0742V23.4989H98.2688V8.95348Z" fill="#101828"/>
</svg>
